<?xml version="1.0" encoding="utf-8"?>
<!-- Generator: Adobe Illustrator 18.0.0, SVG Export Plug-In . SVG Version: 6.00 Build 0)  -->
<!DOCTYPE svg PUBLIC "-//W3C//DTD SVG 1.1//EN" "http://www.w3.org/Graphics/SVG/1.1/DTD/svg11.dtd">
<svg version="1.1" id="Layer_1" xmlns="http://www.w3.org/2000/svg" xmlns:xlink="http://www.w3.org/1999/xlink" x="0px" y="0px"
	 viewBox="0 0 1891.7 348.2" enable-background="new 0 0 1891.7 348.2" xml:space="preserve">
<g>
	<g>
		<path fill="#1D1D1B" d="M634.8,192.3c3.3-13.1,6.6-26.1,9.9-39.2c12.4-48.8,24.8-97.7,37-146.6c1.1-4.3,2.8-5.6,6.8-5.6
			c16.7,0.2,33.3,0.1,50,0.1c1.6,0,3.2,0.2,5.6,0.3c-2.6,10.4-5,20.4-7.6,30.4c-25.9,102.5-51.9,205-77.7,307.6
			c-1.3,5.2-3.3,6.8-8.2,6.7c-16.1-0.3-32.2-0.1-48.4-0.1c-1.4,0-2.9-0.2-4.8-0.4c-9.7-63.9-19.4-127.7-29.2-192.3
			c-0.8,1.3-1.4,1.9-1.6,2.7c-15.7,61.3-31.5,122.7-47,184.1c-1.1,4.5-2.7,6.1-7,6c-16.5-0.3-33-0.1-49.5-0.1c-1.8,0-3.6,0-6.1,0
			c3.8-15,7.3-29.1,10.9-43.1c24.5-96.7,49.1-193.4,73.6-290.2c3-11.6,2.9-11.7,14-11.7c16.3,0,32.6,0,49.5,0
			c9.6,63.9,19.2,127.5,28.7,191.1C634,192.2,634.4,192.2,634.8,192.3z"/>
		<path fill="#1D1D1B" d="M1524.4,346c8.8-34.8,17.3-68.5,26-102.8c-2.2-0.2-3.8-0.4-5.4-0.4c-21.8,0-43.6,0.1-65.4-0.1
			c-4.1,0-5.7,1.4-6.7,5.7c-7.7,30.9-15.6,61.8-23.3,92.7c-0.7,3-1.5,5-5,5c-18.1-0.2-36.3-0.1-54.4-0.1c-0.7,0-1.4-0.4-2.5-0.6
			c0.6-2.9,1.2-5.6,1.8-8.2c24-94.6,47.9-189.3,72-283.8c0.7-2.8,2.6-5.8,4.7-7.6c16.5-14.1,33-28,49.8-41.7c2.1-1.7,5.3-2.8,8-2.8
			C1557.3,1,1590.7,1.1,1624,1c3.5,0,5.7,1,7.8,4.1c8.6,13,17.2,25.9,26,38.7c2.2,3.2,2.6,5.9,1.6,9.9
			c-19.5,76.4-38.8,152.9-58.1,229.4c-4.9,19.3-9.7,38.7-14.7,57.9c-0.5,1.9-2.3,4.7-3.6,4.7C1563.8,346,1544.6,346,1524.4,346z
			 M1595.2,66.1c-2.7,0-4.6,0-6.6,0c-21.4,0-42.8,0.1-64.2-0.1c-4.3,0-5.9,1.5-7,6c-7.2,29.2-14.6,58.3-22,87.4
			c-1.4,5.7-2.8,11.4-4.3,17.2c1.1,0.3,1.6,0.6,2.2,0.6c23.4,0,46.8,0,70.3,0.2c3.6,0,4.1-2.3,4.8-5.1c5.5-21.8,11-43.6,16.5-65.4
			C1588.2,93.5,1591.6,80.3,1595.2,66.1z"/>
		<path fill="#1D1D1B" d="M828.2,346c8.8-34.6,17.3-68.3,26.1-103.2c-2.3,0-4.1,0-5.8,0c-21.4,0-42.9,0.2-64.3-0.1
			c-4.6-0.1-6.6,1.5-7.8,6.4c-7.5,30.4-15.3,60.6-22.8,91c-1.1,4.5-2.7,6.1-7,6c-18.1-0.3-36.2-0.1-55.1-0.1
			c0.5-2.5,0.7-4.4,1.1-6.2c24.2-95.2,48.3-190.3,72.7-285.4c0.9-3.7,3.4-7.5,6.1-9.9c15.8-13.7,31.9-27,48-40.2
			c2.3-1.9,5.6-3.1,8.4-3.1c33.3-0.2,66.7-0.1,100-0.2c3.8,0,6,1.5,8.1,4.7C944,18,952,30.4,960.6,42.5c3.2,4.5,3.5,8.4,2.2,13.7
			c-11.2,43.4-22.2,86.8-33.2,130.2c-12.9,50.8-25.8,101.5-38.6,152.3c-1.4,5.5-3.3,7.7-8.8,7.5c-15.7-0.5-31.5-0.2-47.3-0.2
			C832.9,346,831,346,828.2,346z M794.9,176.6c1.4,0.3,2.3,0.6,3.1,0.6c23.1,0,46.1-0.1,69.2,0.1c3.5,0,4.2-2,4.9-4.9
			c6.3-25.1,12.7-50.1,19-75.2c2.6-10.1,5.1-20.3,7.6-30.5c-1.2-0.3-1.7-0.5-2.3-0.5c-23.4,0-46.9,0-70.3-0.2
			c-3.7,0-4.1,2.3-4.8,5.1c-5.1,20.3-10.2,40.5-15.3,60.8C802.4,146.7,798.7,161.5,794.9,176.6z"/>
		<path fill="#1D1D1B" d="M1620.1,345.6c6.8-26.8,13.3-52.5,19.8-78.2c20.5-80.7,41-161.4,61.4-242.1c1.7-6.8,3.6-13.5,5.1-20.3
			c0.7-3.1,2.1-4.1,5-4.1c48.7,0.1,97.5,0,146.2,0.2c1.8,0,4.2,1.4,5.3,3.1c9.4,13.6,18.6,27.3,27.6,41.2c1.2,1.8,1.7,4.9,1.2,7
			c-11.2,44.8-22.6,89.6-34.2,134.4c-0.7,2.8-2.9,5.5-5,7.4c-11.3,10.3-22.6,20.4-34.2,30.2c-3.3,2.8-4.3,5.7-3.8,10.2
			c4,34.8,7.8,69.6,11.7,104.5c0.2,2,0.3,3.9,0.4,6.4c-1.9,0.2-3.4,0.5-5,0.5c-16.3,0-32.6-0.1-48.9,0.1c-4.2,0.1-5.5-1.4-6-6
			c-3-29.5-6.3-58.9-9.6-88.4c-0.3-2.8-0.8-5.5-1.3-8.9c-12.4,0-24.6,0-36.8,0c-12.2,0-12.2,0-15.4,12.8
			c-7.1,28.4-14.4,56.8-21.4,85.2c-1,3.9-2.5,5.4-6.4,5.3c-16.9-0.3-33.7-0.1-50.6-0.1C1623.8,346,1622.3,345.8,1620.1,345.6z
			 M1827.4,66.5c-1.3-0.2-2-0.4-2.7-0.4c-23.1,0-46.1,0.1-69.2-0.1c-3.9,0-4.3,2.4-5.1,5.4c-6.4,25.5-12.9,50.9-19.4,76.4
			c-2.4,9.5-4.7,19.1-7.1,28.6c1.1,0.4,1.4,0.7,1.8,0.7c23.4,0.1,46.9,0.2,70.3-0.1c1.5,0,3.8-2.6,4.3-4.5
			c5.6-21.1,11-42.4,16.3-63.6C1820.3,94.9,1823.8,80.9,1827.4,66.5z"/>
		<path fill="#1D1D1B" d="M1036.1,139.7c17.1,0,33.2,0,49.3,0c12.8,0,25.7,0.1,38.5-0.1c3.2,0,5.3,0.9,7.3,3.9
			c8.9,14,18.2,27.6,27.1,41.6c1.3,2.1,2,5.7,1.4,8.1c-8.2,33.7-16.7,67.3-25.3,100.9c-0.6,2.3-2.2,4.6-4,6.1
			c-16.9,14.4-33.8,28.8-50.9,42.9c-2,1.7-4.9,2.7-7.4,2.7c-33,0.2-66,0-98.9,0.2c-3.3,0-5.3-1.1-7.3-4
			c-9.1-13.8-18.5-27.4-27.4-41.4c-1.4-2.2-1.9-6-1.3-8.6c3.2-14.2,6.8-28.3,10.3-42.4c0.6-2.6,1-4.8,4.4-4.8
			c18.5,0.2,37,0.1,55.5,0.2c0.5,0,1,0.4,2,0.8c-2.8,11.1-5.6,22.2-8.5,34.1c2.1,0.2,3.8,0.4,5.6,0.4c21.6,0,43.2-0.1,64.9,0.1
			c4.3,0,6-1.4,7.1-5.9c5.5-22.6,11.4-45.2,17.3-68.5c-2.4,0-4.1,0-5.8,0c-27.3,0-54.6-0.1-81.9,0.1c-3.5,0-5.6-1.2-7.6-4.3
			c-8.7-13.9-17.8-27.5-26.4-41.4c-1.4-2.2-2-6-1.4-8.6c8.3-33.3,16.8-66.4,25.4-99.6c0.6-2.3,2.2-4.6,4-6.1
			c17-14.3,34-28.5,51.2-42.6c1.7-1.4,4.3-2.3,6.5-2.3c33.9-0.1,67.8-0.2,101.7,0c2,0,4.6,1.5,5.8,3.2c9.4,13.6,18.5,27.4,27.5,41.3
			c1,1.5,1.6,4.1,1.2,5.9c-3.8,15.5-7.8,30.9-12,46.3c-0.5,1.8-2.6,4.3-4,4.3c-19,0.3-38.1,0.2-58.1,0.2c3-12,5.8-23.4,8.8-35.5
			c-2.1-0.1-3.6-0.3-5.2-0.3c-21.8,0-43.6,0.1-65.4-0.1c-3.8,0-5.4,1.3-6.3,5.3C1047.8,94.1,1042,116.4,1036.1,139.7z"/>
		<path fill="#1D1D1B" d="M1349.5,119.7c4.5-17.8,8.9-35.3,13.4-53.3c-25.4,0-50.3,0-75.8,0c-18,70.9-36.1,142-54.3,213.9
			c10.5,0,20.4,0,30.3,0c13.6,0,27.1-0.2,40.7,0.1c4.2,0.1,5.6-1.5,6.6-5.7c3.3-14.4,7.1-28.6,10.7-42.9c0.7-2.7,1.2-5.1,4.9-5.1
			c18.3,0.2,36.7,0.1,55,0.2c0.5,0,1,0.3,1.9,0.6c-0.3,1.7-0.5,3.5-0.9,5.1c-5.1,20.3-10.1,40.6-15.5,60.8c-0.6,2.5-2.3,5-4.2,6.6
			c-16.7,14.4-33.5,28.6-50.4,42.7c-2.1,1.8-5.2,3-7.9,3c-33,0.2-66,0.2-99,0c-2.3,0-5.4-1.5-6.7-3.5c-9.5-13.5-18.6-27.3-28.1-40.9
			c-2.1-3.1-2.4-5.7-1.5-9.4c19-74.7,38.3-149.4,56.6-224.3c3.4-14.1,9.5-24.1,20.4-32.1c13.1-9.6,25.1-20.8,37.8-31
			c2.6-2.1,6.2-3.5,9.4-3.5c33.2-0.3,66.3-0.1,99.5-0.3c3.8,0,6,1.4,8.1,4.7c8.5,13.3,17.4,26.3,25.9,39.7c1.2,1.8,1.8,4.9,1.3,7
			c-5.3,21.3-10.9,42.5-16.2,63.7c-0.8,3-1.8,4.3-4.8,4.3c-18.1-0.1-36.3-0.1-54.4-0.1C1351.4,120.2,1350.7,119.9,1349.5,119.7z"/>
	</g>
	<path fill="#1D1D1B" d="M0.7,345.8C30,230.5,59,116,88.1,1.4c11.9,0,23.4,0,35.6,0c-2.9,11.9-5.7,23.4-8.7,34.9
		C104.3,79,93.4,121.7,82.6,164.3c-12,47.5-24.1,94.9-36.1,142.4c-2.9,11.6-7,27.6-10.1,39.1H0.7z"/>
	<path fill="#1D1D1B" d="M126.8,345.9c30-115.4,59.8-229.9,89.5-344.4h59.2c-3,11.9-5.7,23.4-8.7,34.9
		c-11,42.6-22.1,85.3-33.2,127.9c-12.3,47.5-24.6,94.9-36.9,142.4c-3,11.6-10.4,39.2-10.4,39.2L126.8,345.9z"/>
	<path fill="#1D1D1B" d="M422.9,346.3c-36.1,0.3-81.4,0.2-121.3,0.2c30-115.4,60-231.6,89.7-346.1c40.4,0,79.1,0,120,0
		c-3,12-6,23.5-8.9,35.1c-22,86.3-43.9,172.6-65.9,258.8L422.9,346.3z"/>
	<path fill="#1D1D1B" d="M209.4,345.9c30-115.4,59.8-229.9,89.5-344.4h59.2c-3,11.9-5.7,23.4-8.7,34.9
		c-11,42.6-22.1,85.3-33.2,127.9c-12.3,47.5-24.6,94.9-36.9,142.4c-3,11.6-10.4,39.2-10.4,39.2L209.4,345.9z"/>
	<path fill="#1D1D1B" d="M60.3,345.8C89.6,230.5,118.7,116,147.8,1.4c11.9,0,23.4,0,35.6,0c-2.9,11.9-5.7,23.4-8.7,34.9
		c-10.8,42.6-21.6,85.3-32.4,127.9c-12,47.5-24.1,94.9-36.1,142.4c-2.9,11.6-7,27.6-10.1,39.1H60.3z"/>
</g>
</svg>
