<?xml version="1.0" encoding="utf-8"?>
<!-- Generator: Adobe Illustrator 18.0.0, SVG Export Plug-In . SVG Version: 6.00 Build 0)  -->
<!DOCTYPE svg PUBLIC "-//W3C//DTD SVG 1.1//EN" "http://www.w3.org/Graphics/SVG/1.1/DTD/svg11.dtd">
<svg version="1.1" id="Capa_1" xmlns="http://www.w3.org/2000/svg" xmlns:xlink="http://www.w3.org/1999/xlink" x="0px" y="0px"
	 viewBox="0 0 176.4 27.7" enable-background="new 0 0 176.4 27.7" xml:space="preserve">
<g>
	<polygon fill-rule="evenodd" clip-rule="evenodd" fill="#0A0A0A" points="0.4,0.3 13.3,0.3 29,20 29,20 29,0.3 37.4,0.3 37.4,27.4 
		24.5,27.4 8.8,7.7 8.8,7.7 8.8,27.4 0.4,27.4 0.4,0.3 	"/>
	<path fill-rule="evenodd" clip-rule="evenodd" fill="#0A0A0A" d="M42.4,9.8c0-7.9,4.5-9.8,12-9.8h13.3c7.5,0,12,1.9,12,9.8v8.1
		c0,7.9-4.5,9.8-12,9.8H54.3c-7.5,0-12-1.9-12-9.8V9.8L42.4,9.8z M50.9,15.3c0,3.9,0.8,5.4,4.8,5.4h10.6c3.9,0,4.8-1.5,4.8-5.4v-2.9
		C71.1,9,70.3,7,65.9,7h-9.7c-4.4,0-5.2,2.1-5.2,5.4V15.3L50.9,15.3z"/>
	<polygon fill-rule="evenodd" clip-rule="evenodd" fill="#0A0A0A" points="84.7,0.3 93,0.3 93,10.3 96.9,10.3 107.4,0.3 118.7,0.3 
		104,13.6 120.4,27.4 108.7,27.4 96.7,17 93,17 93,27.4 84.7,27.4 84.7,0.3 	"/>
	<polygon fill-rule="evenodd" clip-rule="evenodd" fill="#0A0A0A" points="124,0.3 132.3,0.3 132.3,27.4 124,27.4 124,0.3 	"/>
	<path fill-rule="evenodd" clip-rule="evenodd" fill="#0A0A0A" d="M150.4,0.3h10.8l14.9,27.1h-9.3l-2.6-4.8h-16.9l-2.4,4.8h-9.3
		L150.4,0.3L150.4,0.3z M150.6,16.8h10.6l-5.4-10.2L150.6,16.8L150.6,16.8z"/>
</g>
</svg>
