<?xml version="1.0" encoding="utf-8"?>
<!-- Generator: Adobe Illustrator 18.0.0, SVG Export Plug-In . SVG Version: 6.00 Build 0)  -->
<!DOCTYPE svg PUBLIC "-//W3C//DTD SVG 1.1//EN" "http://www.w3.org/Graphics/SVG/1.1/DTD/svg11.dtd">
<svg version="1.1" id="Warstwa_1" xmlns="http://www.w3.org/2000/svg" xmlns:xlink="http://www.w3.org/1999/xlink" x="0px" y="0px"
	 viewBox="0 0 160.9 23.5" enable-background="new 0 0 160.9 23.5" xml:space="preserve">
<path fill-rule="evenodd" clip-rule="evenodd" d="M88,10.9c0,0-1.6-1-2.5-1.3c0,0-3-1.4-3.6-2c0,0-1.2-1.1-0.5-2.4
	c0,0,0.3-0.8,1.5-0.8c0,0,1.6,0.1,1.6,1.4v1.9h5.7l0-2.7c0,0,0.4-4.5-6.8-4.7c0,0-5.7-0.4-7.3,2.7c0,0-0.6,0.7-0.6,3v1.7
	c0,0-0.1,2,0.9,3.2c0,0,0.6,0.8,2,1.8c0,0,2.9,1.5,4.6,2.4c0,0,1.7,1,1.5,2.6c0,0-0.1,1.6-1.8,1.5c0,0-1.5-0.1-1.5-1.6v-1.9h-6.1
	v2.7c0,0-0.2,5.2,7.7,5.2c0,0,7.5,0.2,7.9-5.3V16C90.7,16,91,12.6,88,10.9L88,10.9z"/>
<polygon fill-rule="evenodd" clip-rule="evenodd" points="58.7,0.8 56.8,12.8 56.3,12.8 54.5,0.9 44.9,0.9 44.4,22.7 50.1,22.7 
	50.2,6.3 50.6,6.3 53.6,22.7 59.6,22.7 62.6,6.3 63,6.3 63.1,22.7 68.8,22.7 68.2,0.8 58.7,0.8 "/>
<polygon fill-rule="evenodd" clip-rule="evenodd" points="24.9,0.9 21.2,22.7 27.3,22.7 29.5,5.8 30,5.8 32.2,22.7 38.3,22.7 
	34.6,0.9 24.9,0.9 "/>
<path fill-rule="evenodd" clip-rule="evenodd" d="M153,10.6v3.2h1.6v3.4c0,1.7-1.4,1.7-1.4,1.7c-1.8,0-1.7-1.6-1.7-1.6V5.4
	c0-1.2,1.6-1.3,1.6-1.3c1.5,0,1.5,1.5,1.5,1.5v1.8h5.7c0.2-3.5-0.5-4.4-0.5-4.4c-1.4-3.2-6.8-3-6.8-3c-8.3,0-7.4,6.4-7.4,6.4v11.5
	c0.2,6,8.3,5.4,8.5,5.4c3.6-0.4,4.7-1.6,4.7-1.6c1-0.8,1.3-1.8,1.3-1.8c0.3-0.6,0.4-2.5,0.4-2.5v-6.8H153L153,10.6z"/>
<polygon fill-rule="evenodd" clip-rule="evenodd" points="134,14.1 133.7,14.1 127.9,0.8 120.9,0.8 120.9,22.7 126.6,22.7 
	126.3,9.4 126.5,9.4 132.6,22.7 139.3,22.7 139.3,0.8 133.6,0.8 134,14.1 "/>
<path fill-rule="evenodd" clip-rule="evenodd" d="M107.1,17.3c0,0,0.1,1.8-1.6,1.8c0,0-1.8,0.1-1.8-1.8l0-16.5h-6.2v16.3
	c0,0-0.6,6.2,8.1,6.2c0,0,7.6,0.1,7.6-5.9V0.8h-6.1V17.3L107.1,17.3z"/>
<path fill-rule="evenodd" clip-rule="evenodd" d="M13.1,10.9c0,0-1.6-1-2.5-1.3c0,0-3-1.4-3.6-2c0,0-1.2-1.1-0.5-2.4
	c0,0,0.3-0.8,1.5-0.8c0,0,1.6,0.1,1.6,1.4v1.9h5.7l0-2.7c0,0,0.4-4.5-6.8-4.7c0,0-0.5,0-1.3,0c0,0-4.4,0.2-5.9,2.6c0,0,0,0,0,0
	c0,0-0.6,0.7-0.6,3v1.7c0,0-0.1,2,0.9,3.2c0,0,0.6,0.8,2,1.8c0,0,2.8,1.5,4.6,2.4c0,0,1.7,1,1.5,2.6c0,0-0.1,1.6-1.8,1.5
	c0,0-1.5-0.1-1.5-1.6v-1.9H0.2v2.7c0,0-0.2,5.2,7.7,5.2c0,0,7.5,0.2,7.9-5.3V16C15.7,16,16,12.6,13.1,10.9L13.1,10.9z"/>
</svg>
