<?xml version="1.0" encoding="utf-8"?>
<!-- Generator: Adobe Illustrator 18.0.0, SVG Export Plug-In . SVG Version: 6.00 Build 0)  -->
<!DOCTYPE svg PUBLIC "-//W3C//DTD SVG 1.1//EN" "http://www.w3.org/Graphics/SVG/1.1/DTD/svg11.dtd">
<svg version="1.1" xmlns="http://www.w3.org/2000/svg" xmlns:xlink="http://www.w3.org/1999/xlink" x="0px" y="0px"
	 viewBox="0 0 153.5 31.4" enable-background="new 0 0 153.5 31.4" xml:space="preserve">
<g id="Capa_1">
	<g>
		<g>
			<g>
				<g>
					<path fill-rule="evenodd" clip-rule="evenodd" d="M54.3,11.2c-1.6-0.4-3.2-0.7-4.9-0.7c-3.5,0-5.8,2.4-5.8,5.1
						c0,2.2,1.4,3.6,3.4,4.5l2.8,1.4c1.5,0.7,3.3,1.6,3.3,3.9c0,2.2-1.9,3.6-4.2,3.6c-2.2,0-4.2-1.7-4.5-4.1h-0.8l0.1,4.3
						c2,0.6,4.2,0.6,4.7,0.6c4.4,0,6.6-2.4,6.6-5.7c0-2.6-2-4-3.9-4.9l-2.4-1.1c-2.2-1-3-2.1-3-3.6c0-1.7,1.4-3.1,3.5-3.1
						c4,0,4.2,3.2,4.2,4.1h0.9V11.2z"/>
					<path fill-rule="evenodd" clip-rule="evenodd" d="M66.7,28c-0.4,0-0.6-0.3-0.6-1.7V21c0-1.2-0.5-3.5-3.7-3.5
						c-0.1,0-0.3,0-0.4,0c-0.5,0.1-1.2,0.4-2,0.9c-1.2,0.7-1.8,1.3-1.8,2.1c0,0.5,0.2,0.9,0.5,1.4l1.7-0.9c-0.1-0.4-0.4-0.7-0.4-1.2
						c0-0.8,1.3-1.5,2-1.5c1.6,0.1,2.2,1.7,2.2,3v1l-2.2,0.9l-1.5,0.6c-1.8,0.7-2.7,1.3-2.7,3c0,1.4,1,2.8,3,2.8
						c0.4,0,0.9-0.1,1.3-0.2c0.6-0.1,1.3-0.6,2.3-1.3c0.1,0.8,0.4,1.5,0.6,1.5c0.1,0,0.2,0,0.5-0.1l2.6-1.2v-0.6
						C67.5,27.8,67,28,66.7,28z M61.9,28.3c-0.1,0-0.1,0-0.1,0c-1.4,0-2.2-1.2-2.2-1.9c0-1.2,1.2-1.7,1.7-1.9l0.6-0.2l2.2-0.9v2.6
						c0,0.6,0.1,0.9,0.1,1.2C63.4,27.7,62.7,28.2,61.9,28.3z"/>
					<path fill-rule="evenodd" clip-rule="evenodd" d="M68.8,29.5c0.8,0,1.9-0.1,2.9-0.1c0.9,0,2,0.1,2.6,0.1v-0.8h-0.5
						c-1,0-1.2-0.1-1.2-1.4v-6.8c0.6-0.6,1.9-1.6,3-1.6c0.9,0,1.5,0.3,1.8,0.6c0.8,0.7,0.9,1.4,0.9,2.8v4.1c0,1.7-0.1,2.2-1.2,2.2
						h-0.4v0.8c0.7,0,1.9-0.1,2.9-0.1c0.9,0,2,0.1,2.7,0.1v-0.8h-0.4c-1.3,0-1.5-0.2-1.5-1.2v-4.8c0-1.2-0.1-2.3-0.6-3.2
						c-0.8-1.5-2.3-1.9-3.2-1.9c-1.7,0-3,1.3-4,2.3v-2.3h-0.2c-1.1,0.6-2.4,1.3-3.5,1.7V20c0.4-0.2,0.7-0.3,0.9-0.3
						c0.6,0,0.9,0.4,0.9,2.7v4.5c0,1.5-0.2,1.8-1.4,1.8h-0.4V29.5z"/>
					<path fill-rule="evenodd" clip-rule="evenodd" d="M82,18.9h2.6V25c0,1.2,0.1,2.4,1,3.5c1,1.1,2.7,1.2,3,1.2
						c0.3,0,0.4,0,0.6-0.1l2.2-1.9L91,27.3c-0.4,0.3-1.2,0.7-2,0.7c-1.9,0-2.3-1.8-2.3-3.2v-5.9h3.8l0.4-1.2h-4.2v-3.8L86.3,14
						c-1.2,2.1-2.7,3.6-4.2,4.6V18.9z"/>
					<path fill-rule="evenodd" clip-rule="evenodd" d="M101.4,28c-0.4,0-0.6-0.3-0.6-1.7V21c0-1.2-0.5-3.5-3.7-3.5
						c-0.1,0-0.3,0-0.4,0c-0.5,0.1-1.2,0.4-2,0.9c-1.2,0.7-1.8,1.3-1.8,2.1c0,0.5,0.2,0.9,0.5,1.4l1.7-0.9c-0.1-0.4-0.4-0.7-0.4-1.2
						c0-0.8,1.3-1.5,2-1.5c1.6,0.1,2.2,1.7,2.2,3v1l-2.2,0.9l-1.5,0.6c-1.7,0.7-2.7,1.3-2.7,3c0,1.4,1,2.8,3,2.8
						c0.4,0,0.9-0.1,1.3-0.2c0.6-0.1,1.3-0.6,2.3-1.3c0.1,0.8,0.4,1.5,0.6,1.5c0.1,0,0.2,0,0.5-0.1l2.6-1.2v-0.6
						C102.2,27.8,101.7,28,101.4,28z M96.6,28.3c-0.1,0-0.1,0-0.1,0c-1.4,0-2.2-1.2-2.2-1.9c0-1.2,1.2-1.7,1.7-1.9l0.6-0.2l2.2-0.9
						v2.6c0,0.6,0.1,0.9,0.1,1.2C98.1,27.7,97.4,28.2,96.6,28.3z"/>
					<path fill-rule="evenodd" clip-rule="evenodd" d="M103.5,29.5c0.8,0,2-0.1,2.9-0.1c0.9,0,2,0.1,2.6,0.1v-0.8h-0.5
						c-1,0-1.2-0.1-1.2-1.4v-6.8c0.6-0.6,1.9-1.6,3-1.6c0.9,0,1.5,0.3,1.8,0.6c0.8,0.7,0.9,1.4,0.9,2.8v4.1c0,1.7-0.1,2.2-1.3,2.2
						h-0.4v0.8c0.7,0,1.9-0.1,2.9-0.1c0.9,0,2,0.1,2.7,0.1v-0.8h-0.4c-1.3,0-1.5-0.2-1.5-1.2v-4.8c0-1.2-0.1-2.3-0.6-3.2
						c-0.8-1.5-2.3-1.9-3.2-1.9c-1.7,0-3,1.3-4,2.3v-2.3H107c-1.1,0.6-2.4,1.3-3.5,1.7V20c0.4-0.2,0.7-0.3,0.9-0.3
						c0.6,0,0.9,0.4,0.9,2.7v4.5c0,1.5-0.2,1.8-1.4,1.8h-0.4V29.5z"/>
					<path fill-rule="evenodd" clip-rule="evenodd" d="M130.5,27.8c-0.6,0-1-0.4-1-2.2v-12c0-2.5,0.1-4.4,0.1-5h-0.3
						c-1.5,0.9-2.7,1.4-3.9,1.9v0.9c0.2-0.1,0.6-0.3,1.1-0.3c0.6,0,1,0.5,1,1.3v5.8c-1.2-0.5-2-0.7-3.2-0.7c-0.1,0-0.3,0-0.4,0
						c-3.2,0.2-5.6,3.1-5.6,6.4c0,3.9,2.7,5.8,5.1,5.8c0.1,0,0.4,0,0.5,0c1.4-0.1,2.7-0.9,3.7-1.7c0,0.6,0.1,1.4,0.5,1.8
						c1.4-0.6,2.5-1.2,3.6-1.6v-0.8C131.2,27.7,130.8,27.8,130.5,27.8z M127.6,27.1c-0.8,0.6-1.7,1.2-3.3,1.2c-0.1,0-0.2,0-0.4,0
						c-2.5-0.2-3.6-3.2-3.6-5.5c0-2.2,1.2-4.2,3.6-4.5c0.1,0,0.2,0,0.4,0c1.6,0,2.6,0.9,3.3,1.4V27.1z"/>
					<path fill-rule="evenodd" clip-rule="evenodd" d="M143.3,22.6v-0.3c0-2.8-1.8-4.8-5-4.8c-0.1,0-0.2,0-0.3,0
						c-2.9,0.1-5.4,3-5.4,6c0,2.7,1.7,5.8,5.4,6.1c0.2,0.1,0.5,0.1,0.7,0.1c2,0,3.4-0.7,4.5-1.4v-0.8c-0.6,0.4-1.7,1.1-3.7,1.1
						c-0.6,0-1.1-0.1-1.5-0.2c-2.2-0.7-3.2-3-3.3-5.8h3.3H143.3z M138,18.4C138,18.4,138,18.4,138,18.4c0.9,0,3.2,0.5,3.2,3.3H138
						h-3.3C134.7,20.8,135.6,18.5,138,18.4z"/>
					<path fill-rule="evenodd" clip-rule="evenodd" d="M144.5,29.5c0.9,0,2-0.1,2.9-0.1c0.9,0,2.1,0.1,2.7,0.1v-0.8h-0.5
						c-1,0-1.2-0.1-1.2-1.4v-4.7c0-2.6,1.7-3.4,2.7-3.4c0.7,0,1.5,0.2,1.7,1h0.4v-2.5c-0.4-0.1-0.9-0.2-1.6-0.2
						c-1.4,0-2.5,0.9-3.4,2.7l0,0v-2.7H148c-1.1,0.8-2.3,1.4-3.5,1.9v0.8c0.4-0.2,0.8-0.3,1-0.3c0.6,0,0.9,0.4,0.9,1.2v5.8
						c0,1.5-0.2,1.8-1.4,1.8h-0.5V29.5z"/>
				</g>
				<path fill-rule="evenodd" clip-rule="evenodd" d="M17.1,26.2c0,0,0.1-0.4,0-0.8c-0.4-2.4-6.5-8.5-6.5-10.4
					c-5.5,1.4-10.2,4.2-10.2,7.7c0,4.6,7.6,8.4,17,8.3c9.4-0.1,17-3.8,17-8.4c0-3.5-4.2-6.4-10.2-7.6c0,0,0.1-0.5,0.1-0.9
					c0-4.2-6.4-8.5-6.4-12.2c0-0.6,0-1.4,0-1.4s-1.8,0.9-1.8,4c0,5.4,6.1,8.1,6.1,12.8c0,2.8-1.5,3.4-1.5,3.4s0-0.6,0-1.1
					c0-3.5-6.7-7.7-6.7-11.4c0-0.6,0-1.5,0-1.5s-1.7,0.9-1.7,4c0,5.2,6.1,7.5,6.1,12.8C18.5,25.5,17.1,26.2,17.1,26.2z"/>
			</g>
		</g>
	</g>
</g>
<g id="Fondo">
</g>
<g id="Gu222as">
</g>
<g id="Primer_plano">
</g>
</svg>
